<?xml version="1.0" encoding="utf-8"?>
<!-- Generator: Adobe Illustrator 24.1.0, SVG Export Plug-In . SVG Version: 6.00 Build 0)  -->
<svg version="1.1" id="Layer_1" xmlns="http://www.w3.org/2000/svg" xmlns:xlink="http://www.w3.org/1999/xlink" x="0px" y="0px"
	 viewBox="0 0 512 512" style="enable-background:new 0 0 512 512;" xml:space="preserve">
<style type="text/css">
	.st0{fill:#73005A;}
	.st1{fill:#59FFDE;}
</style>
<g id="start_x5F_point">
	<path id="waypoint" class="st0" d="M256-1.1C153.8-1.1,70.6,82.1,70.6,184.3c0,126.9,165.9,313.2,173,321c6.6,7.4,18.2,7.4,24.8,0
		c7.1-7.9,173-194.1,173-321C441.4,82.1,358.2-1.1,256-1.1z"/>
	<g id="start_x5F_flag" transform="translate(0 -1)">
		<path id="Shape_3_" class="st1" d="M198.8,310.7l3.7-1c3.5-1,5.6-4.7,4.6-8.2l-42-150.5c-0.6-2.1-2-3.9-3.9-5
			c-1.9-1.1-4.2-1.4-6.3-0.8l-0.5,0.1c-4.4,1.2-7,5.8-5.8,10.2l42,150.5C191.6,309.6,195.3,311.7,198.8,310.7L198.8,310.7z"/>
		<path id="Shape_2_" class="st1" d="M362.7,263.2c-13.3-6.6-25.7-15.1-36.6-25.2c-0.9-0.8-1.3-2.1-0.9-3.3
			c5.4-20.6,9.5-41.5,12.1-62.6c0.4-3.5-1.5-4.5-3.5-2.1c-39.2,46.9-107-8.6-147.4,34c0.5,0.9,0.9,1.9,1.1,2.9l27.3,97.7
			c40.4-42.1,108,13,147.1-33.8C363.9,268.3,364.3,263.9,362.7,263.2L362.7,263.2z"/>
	</g>
</g>
</svg>
