<?xml version="1.0" encoding="utf-8"?>
<!-- Generator: Adobe Illustrator 24.1.0, SVG Export Plug-In . SVG Version: 6.00 Build 0)  -->
<svg version="1.1" id="Layer_1" xmlns="http://www.w3.org/2000/svg" xmlns:xlink="http://www.w3.org/1999/xlink" x="0px" y="0px"
	 viewBox="0 0 512 512" style="enable-background:new 0 0 512 512;" xml:space="preserve">
<style type="text/css">
	.st0{fill:#73005A;}
	.st1{fill:#59FFDE;}
</style>
<g id="finish_x5F_point">
	<path id="waypoint_1_" class="st0" d="M256,0C153.8,0,70.6,83.2,70.6,185.4c0,126.9,165.9,313.2,173,321c6.6,7.4,18.2,7.4,24.8,0
		c7.1-7.9,173-194.1,173-321C441.4,83.2,358.2,0,256,0z"/>
	<g id="finish_x5F_flag_1_" transform="translate(0 -1)">
		<path id="Shape" class="st1" d="M206.8,310.7l3.7-1c3.5-1,5.6-4.7,4.6-8.2L173,151c-0.6-2.1-2-3.9-3.9-5c-1.9-1.1-4.2-1.4-6.3-0.8
			l-0.5,0.1c-4.4,1.2-7,5.8-5.8,10.2l42,150.5C199.5,309.6,203.2,311.7,206.8,310.7L206.8,310.7z"/>
		<path id="Shape_1_" class="st1" d="M354.8,205.6c-13.3-6.6-25.7-15.1-36.6-25.2c-0.9-0.8-1.3-2.1-0.9-3.3
			c5.4-20.6,9.5-41.5,12.1-62.6c0.4-3.5-1.5-4.5-3.5-2.1c-39.2,46.9-107-8.6-147.4,34c0.5,0.9,0.9,1.9,1.1,2.9l27.3,97.7
			c40.4-42.1,108,13,147.1-33.8C356,210.7,356.4,206.3,354.8,205.6L354.8,205.6z"/>
	</g>
</g>
</svg>
